<?xml version="1.0" encoding="UTF-8" standalone="no"?>
<!DOCTYPE svg PUBLIC "-//W3C//DTD SVG 1.1//EN" "http://www.w3.org/Graphics/SVG/1.1/DTD/svg11.dtd">
<svg width="100%" height="100%" viewBox="0 0 1399 327" version="1.1" xmlns="http://www.w3.org/2000/svg" xmlns:xlink="http://www.w3.org/1999/xlink" xml:space="preserve" xmlns:serif="http://www.serif.com/" style="fill-rule: evenodd; clip-rule: evenodd; stroke-linejoin: round; stroke-miterlimit: 2">
	<g transform="matrix(1,0,0,1,-260.556,-376.595)">
		<g transform="matrix(22.6114,0,0,22.6114,-3873.48,-12447.5)">
			<path d="M217.648,579.466C217.016,579.466 216.454,579.354 215.962,579.13C215.47,578.906 215.088,578.59 214.816,578.182C214.544,577.774 214.408,577.31 214.408,576.79L214.408,573.358L216.88,573.358L216.88,576.754C216.88,577.018 216.954,577.224 217.102,577.372C217.25,577.52 217.436,577.594 217.66,577.594C217.876,577.594 218.054,577.52 218.194,577.372C218.334,577.224 218.404,577.018 218.404,576.754L218.404,573.358L220.828,573.358L220.828,576.79C220.828,577.318 220.694,577.784 220.426,578.188C220.158,578.592 219.784,578.906 219.304,579.13C218.824,579.354 218.272,579.466 217.648,579.466Z" style="fill: rgb(203, 203, 203); fill-rule: nonzero" />
			<path d="M224.104,579.466C223.424,579.466 222.898,579.252 222.526,578.824C222.154,578.396 221.968,577.81 221.968,577.066L221.968,571.462L224.5,571.09L224.5,576.886C224.5,577.11 224.554,577.272 224.662,577.372C224.77,577.472 224.96,577.522 225.232,577.522C225.432,577.522 225.628,577.474 225.82,577.378L225.904,579.058C225.368,579.33 224.768,579.466 224.104,579.466Z" style="fill: rgb(203, 203, 203); fill-rule: nonzero" />
			<path d="M228.64,579.466C227.968,579.466 227.444,579.25 227.068,578.818C226.692,578.386 226.504,577.798 226.504,577.054L226.504,573.358L229.048,573.358L229.048,576.946C229.048,577.13 229.098,577.272 229.198,577.372C229.298,577.472 229.428,577.522 229.588,577.522C229.748,577.522 229.912,577.474 230.08,577.378L230.212,579.046C230.036,579.182 229.806,579.286 229.522,579.358C229.238,579.43 228.944,579.466 228.64,579.466ZM227.776,572.458C227.4,572.458 227.082,572.34 226.822,572.104C226.562,571.868 226.432,571.578 226.432,571.234C226.432,570.89 226.568,570.602 226.84,570.37C227.112,570.138 227.424,570.022 227.776,570.022C228.144,570.022 228.462,570.142 228.73,570.382C228.998,570.622 229.132,570.906 229.132,571.234C229.132,571.586 228.996,571.878 228.724,572.11C228.452,572.342 228.136,572.458 227.776,572.458Z" style="fill: rgb(203, 203, 203); fill-rule: nonzero" />
			<path d="M234.016,579.466C233.352,579.466 232.762,579.332 232.246,579.064C231.73,578.796 231.328,578.428 231.04,577.96C230.752,577.492 230.608,576.962 230.608,576.37C230.608,575.762 230.756,575.222 231.052,574.75C231.348,574.278 231.748,573.914 232.252,573.658C232.756,573.402 233.316,573.274 233.932,573.274C234.524,573.274 235.03,573.404 235.45,573.664C235.87,573.924 236.184,574.276 236.392,574.72C236.6,575.164 236.704,575.662 236.704,576.214C236.704,576.358 236.696,576.462 236.68,576.526L233.08,576.994C233.176,577.274 233.332,577.476 233.548,577.6C233.764,577.724 234.048,577.786 234.4,577.786C234.944,577.786 235.532,577.646 236.164,577.366L236.464,578.974C235.72,579.302 234.904,579.466 234.016,579.466ZM234.844,575.482C234.716,574.978 234.412,574.726 233.932,574.726C233.644,574.726 233.416,574.834 233.248,575.05C233.08,575.266 232.992,575.546 232.984,575.89L234.844,575.482Z" style="fill: rgb(203, 203, 203); fill-rule: nonzero" />
			<path d="M237.58,573.442L240.112,573.442L240.112,574.666C240.296,574.194 240.546,573.844 240.862,573.616C241.178,573.388 241.548,573.274 241.972,573.274L242.32,575.23C241.56,575.23 241.002,575.312 240.646,575.476C240.29,575.64 240.112,575.898 240.112,576.25L240.112,579.37L237.58,579.37L237.58,573.442Z" style="fill: rgb(203, 203, 203); fill-rule: nonzero" />
		</g>
		<g transform="matrix(22.6114,0,0,22.6114,-4592.68,-12447.5)">
			<path d="M214.636,571.114L220.324,571.114L220.324,572.938L217.216,572.938L217.216,574.606L220.096,574.606L220.096,576.118L217.216,576.118L217.216,579.37L214.636,579.37L214.636,571.114Z" style="fill: url(#_Linear1); fill-rule: nonzero" />
			<path d="M224.248,579.466C223.576,579.466 222.978,579.334 222.454,579.07C221.93,578.806 221.522,578.44 221.23,577.972C220.938,577.504 220.792,576.966 220.792,576.358C220.792,575.75 220.94,575.212 221.236,574.744C221.532,574.276 221.942,573.914 222.466,573.658C222.99,573.402 223.588,573.274 224.26,573.274C224.94,573.274 225.542,573.404 226.066,573.664C226.59,573.924 226.996,574.286 227.284,574.75C227.572,575.214 227.716,575.75 227.716,576.358C227.716,576.974 227.57,577.516 227.278,577.984C226.986,578.452 226.578,578.816 226.054,579.076C225.53,579.336 224.928,579.466 224.248,579.466ZM224.272,577.666C224.6,577.666 224.87,577.544 225.082,577.3C225.294,577.056 225.4,576.742 225.4,576.358C225.4,575.974 225.294,575.66 225.082,575.416C224.87,575.172 224.6,575.05 224.272,575.05C223.944,575.05 223.674,575.172 223.462,575.416C223.25,575.66 223.144,575.974 223.144,576.358C223.144,576.742 223.25,577.056 223.462,577.3C223.674,577.544 223.944,577.666 224.272,577.666Z" style="fill: url(#_Linear2); fill-rule: nonzero" />
			<path d="M228.616,573.442L231.148,573.442L231.148,574.666C231.332,574.194 231.582,573.844 231.898,573.616C232.214,573.388 232.584,573.274 233.008,573.274L233.356,575.23C232.596,575.23 232.038,575.312 231.682,575.476C231.326,575.64 231.148,575.898 231.148,576.25L231.148,579.37L228.616,579.37L228.616,573.442Z" style="fill: url(#_Linear3); fill-rule: nonzero" />
			<path d="M233.968,573.442L236.38,573.442L236.38,574.666C236.652,574.194 236.962,573.844 237.31,573.616C237.658,573.388 238.072,573.274 238.552,573.274C239.024,573.274 239.434,573.392 239.782,573.628C240.13,573.864 240.392,574.182 240.568,574.582C241.08,573.71 241.824,573.274 242.8,573.274C243.264,573.274 243.67,573.398 244.018,573.646C244.366,573.894 244.636,574.252 244.828,574.72C245.02,575.188 245.116,575.738 245.116,576.37L245.116,579.37L242.584,579.37L242.584,576.37C242.584,575.962 242.514,575.654 242.374,575.446C242.234,575.238 242.04,575.134 241.792,575.134C241.52,575.134 241.286,575.25 241.09,575.482C240.894,575.714 240.796,575.994 240.796,576.322L240.796,579.37L238.288,579.37L238.288,576.37C238.288,575.962 238.218,575.654 238.078,575.446C237.938,575.238 237.74,575.134 237.484,575.134C237.212,575.134 236.98,575.25 236.788,575.482C236.596,575.714 236.5,575.994 236.5,576.322L236.5,579.37L233.968,579.37L233.968,573.442Z" style="fill: url(#_Linear4); fill-rule: nonzero" />
		</g>
		<g transform="matrix(2.20313,0,0,1.63461,-1010.5,-148.219)">
			<rect x="1194.6" y="321.064" width="17.287" height="199.931" style="fill: rgb(225, 71, 255)" />
		</g>
	</g>
	<defs>
		<linearGradient id="_Linear1" x1="0" y1="0" x2="1" y2="0" gradientUnits="userSpaceOnUse" gradientTransform="matrix(-16.7672,-9.93238,9.93238,-16.7672,237.705,579.661)">
			<stop offset="0" style="stop-color: rgb(225, 71, 255); stop-opacity: 1" />
			<stop offset="1" style="stop-color: rgb(23, 218, 240); stop-opacity: 1" />
		</linearGradient>
		<linearGradient id="_Linear2" x1="0" y1="0" x2="1" y2="0" gradientUnits="userSpaceOnUse" gradientTransform="matrix(-16.7672,-9.93238,9.93238,-16.7672,237.705,579.661)">
			<stop offset="0" style="stop-color: rgb(225, 71, 255); stop-opacity: 1" />
			<stop offset="1" style="stop-color: rgb(23, 218, 240); stop-opacity: 1" />
		</linearGradient>
		<linearGradient id="_Linear3" x1="0" y1="0" x2="1" y2="0" gradientUnits="userSpaceOnUse" gradientTransform="matrix(-16.7672,-9.93238,9.93238,-16.7672,237.705,579.661)">
			<stop offset="0" style="stop-color: rgb(225, 71, 255); stop-opacity: 1" />
			<stop offset="1" style="stop-color: rgb(23, 218, 240); stop-opacity: 1" />
		</linearGradient>
		<linearGradient id="_Linear4" x1="0" y1="0" x2="1" y2="0" gradientUnits="userSpaceOnUse" gradientTransform="matrix(-16.7672,-9.93238,9.93238,-16.7672,237.705,579.661)">
			<stop offset="0" style="stop-color: rgb(225, 71, 255); stop-opacity: 1" />
			<stop offset="1" style="stop-color: rgb(23, 218, 240); stop-opacity: 1" />
		</linearGradient>
	</defs>
</svg>
