<?xml version="1.0" encoding="UTF-8" standalone="no"?>
<!DOCTYPE svg PUBLIC "-//W3C//DTD SVG 1.1//EN" "http://www.w3.org/Graphics/SVG/1.1/DTD/svg11.dtd">
<svg width="100%" height="100%" viewBox="0 0 626 100" version="1.1" xmlns="http://www.w3.org/2000/svg" xmlns:xlink="http://www.w3.org/1999/xlink" xml:space="preserve" xmlns:serif="http://www.serif.com/" style="fill-rule:evenodd;clip-rule:evenodd;stroke-linejoin:round;stroke-miterlimit:2;">
   <g transform="matrix(1,0,0,1,-2386.27,0)">
      <g id="Logo-Type-Colour" serif:id="Logo Type Colour" transform="matrix(0.325677,0,0,0.0925926,1744.69,0)">
         <rect x="1970" y="0" width="1920" height="1080" style="fill:none;"/>
         <clipPath id="_clip1">
            <rect x="1970" y="0" width="1920" height="1080"/>
         </clipPath>
         <g clip-path="url(#_clip1)">
            <g transform="matrix(1.12151,0,0,3.52728,-511.776,-649.441)"><rect x="2212.89" y="184.119" width="273.785" height="76.546" style="fill:url(#_Radial2);"/></g>
            <g transform="matrix(1.12151,0,0,3.52728,-511.776,-244.441)"><rect x="2212.89" y="184.119" width="273.785" height="76.546" style="fill:url(#_Radial3);"/></g>
            <g transform="matrix(0.560755,0,0,3.52728,729.112,160.559)"><rect x="2212.89" y="184.119" width="273.785" height="76.546" style="fill:url(#_Radial4);"/></g>
            <g transform="matrix(2.7244,0,0,9.58258,-3461.46,-3655.61)"><path d="M2188.66,482.16L2188.66,403.812L2207.8,403.812L2207.8,482.16L2188.66,482.16ZM2197.61,452.164L2197.61,436.158L2238.36,436.158L2238.36,452.164L2197.61,452.164ZM2197.61,420.712L2197.61,403.812L2242.83,403.812L2242.83,420.712L2197.61,420.712Z" style="fill-rule:nonzero;"/></g>
            <g transform="matrix(2.7244,0,0,9.58258,-3473.74,-3655.61)"><path d="M2280.44,483.279C2274.32,483.279 2268.84,481.955 2263.99,479.306C2259.14,476.657 2255.33,473.001 2252.57,468.337C2249.81,463.673 2248.43,458.394 2248.43,452.499C2248.43,446.455 2249.81,441.102 2252.57,436.438C2255.33,431.774 2259.14,428.118 2263.99,425.469C2268.84,422.82 2274.32,421.496 2280.44,421.496C2286.63,421.496 2292.14,422.82 2296.95,425.469C2301.76,428.118 2305.55,431.774 2308.31,436.438C2311.07,441.102 2312.45,446.455 2312.45,452.499C2312.45,458.394 2311.07,463.673 2308.31,468.337C2305.55,473.001 2301.76,476.657 2296.95,479.306C2292.14,481.955 2286.63,483.279 2280.44,483.279ZM2280.44,467.833C2283.13,467.833 2285.49,467.162 2287.55,465.819C2289.6,464.476 2291.22,462.647 2292.42,460.334C2293.61,458.021 2294.17,455.41 2294.1,452.499C2294.17,449.44 2293.61,446.735 2292.42,444.385C2291.22,442.034 2289.6,440.206 2287.55,438.9C2285.49,437.595 2283.13,436.942 2280.44,436.942C2277.83,436.942 2275.48,437.613 2273.39,438.956C2271.3,440.3 2269.66,442.128 2268.46,444.441C2267.27,446.754 2266.67,449.44 2266.67,452.499C2266.67,455.41 2267.27,458.021 2268.46,460.334C2269.66,462.647 2271.3,464.476 2273.39,465.819C2275.48,467.162 2277.83,467.833 2280.44,467.833Z" style="fill-rule:nonzero;"/></g>
            <g transform="matrix(2.7244,0,0,9.58258,-3479.88,-3655.61)"><path d="M2321.41,482.16L2321.41,422.727L2338.53,422.727L2339.31,442.09L2335.95,438.285C2336.93,435.151 2338.42,432.315 2340.43,429.778C2342.45,427.241 2344.85,425.227 2347.65,423.734C2350.45,422.242 2353.38,421.496 2356.44,421.496C2357.78,421.496 2359.03,421.589 2360.19,421.776C2361.34,421.962 2362.37,422.242 2363.26,422.615L2358.45,442.426C2357.63,441.978 2356.53,441.587 2355.15,441.251C2353.77,440.915 2352.33,440.747 2350.84,440.747C2349.2,440.747 2347.69,441.027 2346.31,441.587C2344.93,442.146 2343.73,442.948 2342.73,443.993C2341.72,445.038 2340.94,446.269 2340.38,447.687C2339.82,449.104 2339.54,450.709 2339.54,452.499L2339.54,482.16L2321.41,482.16Z" style="fill-rule:nonzero;"/></g>
            <g transform="matrix(2.7244,0,0,9.58258,-3473.74,-3655.61)"><path d="M2366.4,482.16L2366.4,422.727L2383.52,422.727L2384.08,433.472L2381.62,433.696C2382.44,431.756 2383.56,430.04 2384.98,428.547C2386.4,427.055 2387.98,425.805 2389.74,424.798C2391.49,423.79 2393.34,423.007 2395.28,422.447C2397.22,421.888 2399.16,421.608 2401.1,421.608C2404.08,421.608 2406.75,422.056 2409.1,422.951C2411.45,423.846 2413.5,425.301 2415.26,427.316C2417.01,429.331 2418.41,432.017 2419.45,435.375L2416.77,434.927L2417.55,433.36C2418.59,431.569 2419.88,429.946 2421.41,428.491C2422.94,427.036 2424.64,425.786 2426.5,424.742C2428.37,423.697 2430.29,422.914 2432.27,422.391C2434.24,421.869 2436.17,421.608 2438.03,421.608C2442.73,421.608 2446.65,422.541 2449.78,424.406C2452.92,426.271 2455.27,429.014 2456.84,432.633C2458.4,436.252 2459.19,440.71 2459.19,446.008L2459.19,482.16L2441.17,482.16L2441.17,447.351C2441.17,443.844 2440.44,441.214 2438.98,439.46C2437.53,437.707 2435.35,436.83 2432.44,436.83C2430.87,436.83 2429.43,437.072 2428.13,437.557C2426.82,438.042 2425.7,438.751 2424.77,439.684C2423.84,440.617 2423.11,441.68 2422.59,442.874C2422.06,444.068 2421.8,445.411 2421.8,446.903L2421.8,482.16L2403.78,482.16L2403.78,447.239C2403.78,443.881 2403.02,441.307 2401.49,439.516C2399.96,437.725 2397.81,436.83 2395.05,436.83C2393.56,436.83 2392.16,437.072 2390.86,437.557C2389.55,438.042 2388.43,438.751 2387.5,439.684C2386.56,440.617 2385.84,441.68 2385.32,442.874C2384.79,444.068 2384.53,445.411 2384.53,446.903L2384.53,482.16L2366.4,482.16Z" style="fill-rule:nonzero;"/></g>
            <g transform="matrix(2.7244,0,0,9.58258,-3476.81,-3655.61)"><path d="M2489.85,483.279C2485.53,483.279 2481.8,482.328 2478.66,480.425C2475.53,478.522 2473.12,475.799 2471.44,472.254C2469.76,468.71 2468.92,464.438 2468.92,459.439L2468.92,422.727L2486.94,422.727L2486.94,456.753C2486.94,460.409 2487.82,463.263 2489.57,465.315C2491.33,467.367 2493.77,468.393 2496.91,468.393C2498.47,468.393 2499.89,468.151 2501.16,467.665C2502.43,467.18 2503.53,466.472 2504.46,465.539C2505.39,464.606 2506.12,463.506 2506.64,462.237C2507.16,460.969 2507.43,459.588 2507.43,458.096L2507.43,422.727L2525.45,422.727L2525.45,482.16L2508.55,482.16L2507.87,469.96L2511.12,468.617C2510.3,471.378 2508.83,473.877 2506.7,476.116C2504.57,478.354 2502.05,480.108 2499.14,481.376C2496.23,482.645 2493.14,483.279 2489.85,483.279Z" style="fill:rgb(166,166,166);fill-rule:nonzero;"/></g>
            <g transform="matrix(2.7244,0,0,9.58258,-3476.81,-3655.61)"><rect x="2537.31" y="399.334" width="18.02" height="82.825" style="fill:rgb(166,166,166);fill-rule:nonzero;"/></g>
            <g transform="matrix(2.7244,0,0,9.58258,-3476.81,-3655.61)"><path d="M2566.41,482.16L2566.41,422.727L2584.43,422.727L2584.43,482.16L2566.41,482.16ZM2575.48,410.975C2572.05,410.975 2569.38,410.173 2567.47,408.568C2565.57,406.964 2564.62,404.67 2564.62,401.685C2564.62,398.924 2565.59,396.686 2567.53,394.969C2569.47,393.253 2572.12,392.395 2575.48,392.395C2578.76,392.395 2581.35,393.197 2583.26,394.801C2585.16,396.406 2586.11,398.7 2586.11,401.685C2586.11,404.446 2585.16,406.684 2583.26,408.401C2581.35,410.117 2578.76,410.975 2575.48,410.975Z" style="fill:rgb(166,166,166);fill-rule:nonzero;"/></g><g transform="matrix(2.7244,0,0,9.58258,-3476.81,-3655.61)"><path d="M2624.84,483.279C2618.27,483.279 2612.54,481.973 2607.66,479.362C2602.77,476.75 2599,473.15 2596.35,468.561C2593.7,463.972 2592.38,458.73 2592.38,452.835C2592.38,448.209 2593.12,443.974 2594.62,440.132C2596.11,436.289 2598.22,432.987 2600.94,430.226C2603.66,427.465 2606.87,425.32 2610.57,423.79C2614.26,422.261 2618.31,421.496 2622.71,421.496C2626.89,421.496 2630.69,422.242 2634.13,423.734C2637.56,425.227 2640.54,427.316 2643.08,430.002C2645.62,432.689 2647.56,435.86 2648.9,439.516C2650.24,443.172 2650.88,447.164 2650.8,451.492L2650.69,456.417L2603.46,456.417L2600.77,446.232L2636.03,446.232L2634.13,448.246L2634.13,446.008C2633.98,444.142 2633.4,442.519 2632.39,441.139C2631.39,439.759 2630.08,438.658 2628.47,437.837C2626.87,437.016 2625.06,436.606 2623.05,436.606C2620.06,436.606 2617.54,437.184 2615.49,438.341C2613.44,439.497 2611.89,441.158 2610.85,443.322C2609.8,445.485 2609.28,448.172 2609.28,451.38C2609.28,454.589 2609.97,457.424 2611.35,459.887C2612.73,462.349 2614.74,464.252 2617.39,465.595C2620.04,466.938 2623.2,467.61 2626.85,467.61C2629.31,467.61 2631.55,467.236 2633.57,466.49C2635.58,465.744 2637.75,464.476 2640.06,462.685L2648.45,474.549C2646.14,476.489 2643.68,478.112 2641.07,479.418C2638.45,480.724 2635.79,481.694 2633.06,482.328C2630.34,482.962 2627.6,483.279 2624.84,483.279Z" style="fill:rgb(166,166,166);fill-rule:nonzero;"/></g><g transform="matrix(2.7244,0,0,9.58258,-3476.81,-3655.61)"><path d="M2662.11,482.16L2662.11,422.727L2679.23,422.727L2680.02,442.09L2676.66,438.285C2677.63,435.151 2679.12,432.315 2681.14,429.778C2683.15,427.241 2685.56,425.227 2688.36,423.734C2691.15,422.242 2694.08,421.496 2697.14,421.496C2698.48,421.496 2699.73,421.589 2700.89,421.776C2702.05,421.962 2703.07,422.242 2703.97,422.615L2699.16,442.426C2698.34,441.978 2697.24,441.587 2695.85,441.251C2694.47,440.915 2693.04,440.747 2691.55,440.747C2689.9,440.747 2688.39,441.027 2687.01,441.587C2685.63,442.146 2684.44,442.948 2683.43,443.993C2682.42,445.038 2681.64,446.269 2681.08,447.687C2680.52,449.104 2680.24,450.709 2680.24,452.499L2680.24,482.16L2662.11,482.16Z" style="fill:rgb(166,166,166);fill-rule:nonzero;"/></g>
         </g>
      </g>
   </g>
   <defs>
      <radialGradient id="_Radial2" cx="0" cy="0" r="1" gradientUnits="userSpaceOnUse" gradientTransform="matrix(206.299,-355.618,317.987,230.712,2240.29,512.285)"><stop offset="0" style="stop-color:rgb(108,142,254);stop-opacity:1"/><stop offset="0.19" style="stop-color:rgb(245,0,255);stop-opacity:1"/><stop offset="0.47" style="stop-color:rgb(255,0,40);stop-opacity:1"/><stop offset="0.63" style="stop-color:rgb(255,95,0);stop-opacity:1"/><stop offset="0.87" style="stop-color:rgb(255,214,0);stop-opacity:1"/><stop offset="1" style="stop-color:white;stop-opacity:1"/></radialGradient>
      <radialGradient id="_Radial3" cx="0" cy="0" r="1" gradientUnits="userSpaceOnUse" gradientTransform="matrix(206.299,-355.618,317.987,230.712,2240.29,397.466)"><stop offset="0" style="stop-color:rgb(108,142,254);stop-opacity:1"/><stop offset="0.19" style="stop-color:rgb(245,0,255);stop-opacity:1"/><stop offset="0.47" style="stop-color:rgb(255,0,40);stop-opacity:1"/><stop offset="0.63" style="stop-color:rgb(255,95,0);stop-opacity:1"/><stop offset="0.87" style="stop-color:rgb(255,214,0);stop-opacity:1"/><stop offset="1" style="stop-color:white;stop-opacity:1"/></radialGradient>
      <radialGradient id="_Radial4" cx="0" cy="0" r="1" gradientUnits="userSpaceOnUse" gradientTransform="matrix(412.598,-355.618,635.974,230.712,2267.69,282.647)"><stop offset="0" style="stop-color:rgb(108,142,254);stop-opacity:1"/><stop offset="0.19" style="stop-color:rgb(245,0,255);stop-opacity:1"/><stop offset="0.47" style="stop-color:rgb(255,0,40);stop-opacity:1"/><stop offset="0.63" style="stop-color:rgb(255,95,0);stop-opacity:1"/><stop offset="0.87" style="stop-color:rgb(255,214,0);stop-opacity:1"/><stop offset="1" style="stop-color:white;stop-opacity:1"/></radialGradient>
   </defs>
</svg>
